<?xml version="1.0" encoding="utf-8"?>
<!-- Generator: Adobe Illustrator 24.0.1, SVG Export Plug-In . SVG Version: 6.00 Build 0)  -->
<svg version="1.1" id="Layer_1" xmlns="http://www.w3.org/2000/svg" xmlns:xlink="http://www.w3.org/1999/xlink" x="0px" y="0px"
	 viewBox="0 0 900 580" style="enable-background:new 0 0 900 580;" xml:space="preserve">
<style type="text/css">
	.st0{fill:#089B94;}
	.st1{fill:#10C6A8;}
	.st2{fill:#5C910F;}
	.st3{fill:#B2CE09;}
	.st4{fill:#0C86A3;}
	.st5{fill:#16B4C4;}
	.st6{fill:#0E5687;}
	.st7{fill:#108EBF;}
	.st8{fill:none;}
	.st9{fill:#BC1F00;}
	.st10{fill:#F74926;}
	.st11{fill:#6565A8;}
	.st12{fill:#8B8BD3;}
	.st13{fill:#FFAA00;}
	.st14{fill:#FFE600;}
</style>
<path class="st0" d="M630.8,248.3C630.8,248.3,630.8,248.3,630.8,248.3v26.6h28.6v89.9h29.4v-89.9h28.5v-26.6H630.8z"/>
<path class="st1" d="M622.8,248.3v26.6h28.6v89.9h29.5v-89.9h28.4c0,0,0,0,0,0v-26.6H622.8z"/>
<path class="st2" d="M351.3,280.6c-10.5-1.2-19.1-3-18.5-11.8c0.4-5.9,6.3-9.5,13-10.5c9-1.4,19.3,2,19.3,10.8v0h28.3
	c0.1-11-4.1-19.7-10.9-25.9c-8.2-7.5-20-11.4-32-11.8c-1.9-0.1-3.8,0-5.6,0.1c-2,0.1-4,0.4-6,0.7c-11,1.8-21.1,6.8-27.5,15v0
	c-1.6,2-2.9,4.2-4,6.6c-0.7,1.5-1.3,3.1-1.7,4.7c-0.9,3.2-1.3,6.7-1.3,10.5c0.3,25.3,17,34,42.3,35.8c11.6,0.7,21.3,2.5,21.3,10.6
	c0,7.7-11.5,11-21.6,9.8c-7.9-0.9-14.9-4.6-14.9-11.1h-28.8c-0.3,24.2,20.7,36.8,43,38.2c24.9,1.5,51.2-10.9,51.2-36.7
	C397.1,286.6,374.4,283.1,351.3,280.6z"/>
<path class="st3" d="M343.4,280.6c-10.5-1.2-19.1-3-18.5-11.8c0.6-8.2,11.9-12,20.9-10.5c6.2,1,11.4,4.5,11.4,10.8h28.3
	c0.1-9.7-3.2-17.6-8.6-23.6c0,0,0,0,0,0c-1-1.2-2.2-2.2-3.4-3.3l0,0c0,0,0,0-0.1,0c0,0,0,0,0,0c-5.5-4.7-12.5-7.8-19.9-9.4h0
	c-2.8-0.6-5.6-1-8.5-1.2c-2.6-0.2-5.2-0.2-7.9,0c-1.6,0.1-3.2,0.3-4.8,0.5h0c-7.5,1.1-14.6,3.6-20.4,7.6c-5.1,3.5-9.3,8-12,13.6
	c0,0,0,0,0,0.1v0c-0.2,0.5-0.5,1-0.7,1.6c-0.1,0.3-0.3,0.6-0.4,0.9c-0.1,0.2-0.2,0.4-0.2,0.6c-0.1,0.2-0.2,0.5-0.3,0.8
	c-1.1,3.4-1.7,7-1.7,11c0,0.3,0,0.6,0,0.8c0.3,25.3,17,33.9,42.3,35.8c11.7,0.7,21.3,2.5,21.3,10.7c0,5.7-6.3,9-13.7,9.8
	c-10.3,1.2-22.8-2.5-22.8-11.1c0,0,0,0,0,0H295c-0.4,27.1,26,39.6,50.9,38.2c22.2-1.3,43.3-13.6,43.3-36.7
	C389.1,286.6,366.5,283.1,343.4,280.6z"/>
<path class="st4" d="M171.8,300.7c29.5-20,21.1-75-24.6-75.2h-7.3c0,0,0,0,0,0H96.1V342c0,0,0,0,0,0h29.8v-34.3h15.5l20,34.3l0,0
	h33.3v-4.3L171.8,300.7z M147.2,281.2h-21.3c0,0,0,0,0,0v-29.1c3.5,0,7,0,10.5-0.1h0.2c3.6,0,7.1,0,10.6,0.1
	C164.1,252.3,163.3,281.2,147.2,281.2z"/>
<path class="st5" d="M163.9,300.7c29.3-19.9,21.2-74.5-24-75.2c0,0,0,0,0,0c-0.2,0-0.4,0-0.6,0H88.2V342h29.8v-34.3h15.5l0,0
	l20,34.3h33.3v-4.3L163.9,300.7z M117.9,252.1c6,0,12.3-0.1,18.4-0.1h0.2c0.9,0,1.8,0,2.7,0.1c17,0.2,16.1,29.1,0,29.1h-21.3V252.1z
	"/>
<path class="st6" d="M245.1,345.8v-20.5h39.6v-26.4h-39.6v-16.5h43.1v-26.6h-72.7v116.5h74.2v-26.5H245.1z"/>
<path class="st7" d="M237.2,345.8v-20.5h39.6v-26.4h-39.6v-16.5h43.1v-26.6h-72.7v116.5h74.2v-26.5H237.2z"/>
<path class="st8" d="M422.3,372.3c0,0,38.2-16.3,56.3,0.3l-15.5,9.6L422.3,372.3z"/>
<path class="st9" d="M482.7,262.2v77.2c0,9.5-9,14.1-17.6,14.1c-1.4,0-2.7-0.1-4-0.3c0,0,0,0,0,0c-7.2-1.2-13.7-5.8-13.7-13.8v-77.2
	h-28.5v77.7c0,9.3,2.9,17.2,7.9,23.4c1.6,2,3.4,3.9,5.3,5.6c0.4,0.4,0.9,0.7,1.3,1.1c2.2,1.7,4.5,3.2,7,4.5c0,0,0,0,0,0
	c5.2,2.7,11.1,4.5,17.2,5.4c1.1,0.2,2.3,0.3,3.5,0.4c1.4,0.1,2.7,0.1,4.1,0.1c0.3,0,0.6,0,0.9,0c0.3,0,0.5,0,0.7,0
	c15.9-0.5,30.8-7.5,38.7-19.8c3.6-5.7,5.8-12.7,5.8-20.6v-77.7H482.7z"/>
<path class="st10" d="M474.7,262.2v77.2c0,8.1-6.5,12.6-13.8,13.8c0,0,0,0,0,0c-1.3,0.2-2.6,0.3-3.9,0.3c-8.7,0-17.8-4.7-17.8-14.1
	v-77.2h-28.5v77.7c0,9,2.8,16.6,7.4,22.8c0,0,0,0,0,0c2,2.7,4.3,5,7,7.1c0.3,0.3,0.7,0.5,1,0.8c0,0,0.1,0.1,0.1,0.1
	c1,0.8,2.1,1.5,3.1,2.1c0.9,0.6,1.8,1.1,2.8,1.6c0,0,0,0,0,0c0.3,0.1,0.6,0.3,0.9,0.5c0,0,0,0,0,0c0.9,0.4,1.7,0.8,2.6,1.2
	c0,0,0,0,0,0c0,0,0,0,0.1,0c6,2.6,12.7,4,19.6,4.2h0c0.5,0,1,0,1.6,0c0.5,0,1,0,1.5,0c0.8,0,1.5,0,2.3-0.1c1.6-0.1,3.2-0.3,4.8-0.5
	c0.6-0.1,1.2-0.2,1.8-0.3c12.7-2.4,23.9-9,30.2-19.4c3.5-5.7,5.5-12.4,5.5-20.1v-77.7H474.7z"/>
<path class="st11" d="M780.3,294.5c-10.5-1.2-19.1-3-18.5-11.8c0.4-5.9,6.3-9.5,13-10.5c9-1.4,19.3,1.9,19.3,10.8c0,0,0,0,0,0h28.3
	c0.4-26.6-24.9-39.1-48.5-37.6c-21,1.4-40.8,13.9-40.4,37.6c0.3,25.3,17,33.9,42.3,35.8c11.7,0.7,21.3,2.5,21.3,10.7
	c0,7.7-11.5,11-21.5,9.8c-7.9-0.9-14.9-4.6-14.9-11.1h-28.8c-0.2,18.3,11.7,29.9,27.1,35.1c3.8,1.3,7.9,2.2,12,2.7
	c1.3,0.2,2.5,0.3,3.8,0.3c1.2,0.1,2.4,0.1,3.6,0.1c4,0,7.9-0.3,11.8-1c1-0.2,2-0.4,3-0.6h0c8.9-2,17.1-5.9,23-11.8
	c6-5.9,9.8-13.7,9.8-23.5C826.1,300.5,803.4,297,780.3,294.5z"/>
<path class="st12" d="M772.4,294.5c-10.5-1.2-19.1-3-18.5-11.8c0.6-8.2,11.8-12,20.9-10.5c6.2,1,11.4,4.5,11.4,10.8h28.3
	c0.3-23.6-19.5-36.1-40.6-37.5c-23.7-1.6-48.8,10.9-48.3,37.5c0.3,25.3,17,34,42.3,35.8c11.6,0.7,21.3,2.5,21.3,10.7
	c0,5.7-6.3,8.9-13.6,9.8c-10.4,1.2-22.8-2.4-22.8-11.1v0h-28.8c-0.1,10.4,3.6,18.6,9.7,24.7c4.4,4.5,10.1,7.8,16.3,10.1
	c2.8,1,5.7,1.8,8.6,2.4c4.2,0.8,8.5,1.2,12.8,1.2h0c1.1,0,2.3,0,3.4-0.1c0.6,0,1.3-0.1,1.9-0.1c0.6-0.1,1.1-0.1,1.7-0.2
	c0.1,0,0.3,0,0.4,0c0.1,0,0.1,0,0.2,0c0.4-0.1,0.9-0.1,1.3-0.2c0.6-0.1,1.2-0.2,1.8-0.3c0.5-0.1,1-0.2,1.5-0.3
	c1.3-0.3,2.6-0.5,3.8-0.9c0.5-0.1,1-0.3,1.5-0.4c0.1,0,0.2-0.1,0.3-0.1c0.1,0,0.2-0.1,0.3-0.1c0,0,0,0,0,0c0.3-0.1,0.7-0.2,1-0.3
	c0.1,0,0.2-0.1,0.3-0.1c0.5-0.2,1-0.3,1.5-0.5c1-0.4,1.9-0.7,2.9-1.2c0.3-0.1,0.5-0.2,0.8-0.3c1.4-0.6,2.7-1.3,3.9-2
	c0.3-0.1,0.5-0.3,0.8-0.5c0.8-0.5,1.7-1,2.5-1.6h0c2.4-1.7,4.6-3.5,6.5-5.6c5.2-5.7,8.4-13,8.4-22
	C818.1,300.5,795.5,297,772.4,294.5z"/>
<path class="st13" d="M574.1,335.9L574.1,335.9c0-40.6,0-34.5,0-64v-25.7h-30v116.5h72.2v-26.8H574.1z"/>
<path class="st14" d="M566.2,335.8v-89.7c0,0,0,0,0,0h-30v116.5h72.2v-26.8H566.2z"/>
</svg>
